<svg width="100" height="100" viewBox="0 0 100 100" fill="none" xmlns="http://www.w3.org/2000/svg">
<path d="M100 0H0V100H100V0Z" fill="white"/>
<path d="M32.1 11.5H34.3H37.2H39.4C39.7 11.5 40 11.8 40 12.1V14.3V17.1V19.3C40 19.6 40.3 19.9 40.6 19.9H42.2C42.5 19.9 42.8 19.6 42.8 19.3V17.1V15C42.8 14.7 43.1 14.4 43.4 14.4H45C45.3 14.4 45.6 14.1 45.6 13.8V12.2C45.6 11.9 45.3 11.6 45 11.6H43.4C43.1 11.6 42.8 11.3 42.8 11V9.29995C42.8 8.99995 42.5 8.69995 42.2 8.69995H40H37.2H34.3H33.7H32.1C31.8 8.69995 31.5 8.99995 31.5 9.29995V10.9C31.5 11.2 31.7 11.5 32.1 11.5Z" fill="#5F676D" fill-opacity="0.4"/>
<path d="M63.4001 11.5H65C65.3 11.5 65.6 11.2 65.6 10.9V9.29995C65.6 8.99995 65.3 8.69995 65 8.69995H63.4001C63.1001 8.69995 62.8 8.99995 62.8 9.29995V10.9C62.8 11.2 63.1001 11.5 63.4001 11.5Z" fill="#5F676D" fill-opacity="0.4"/>
<path d="M49.2 14.3H50.7999C51.0999 14.3 51.4 14 51.4 13.7V12.1C51.4 11.8 51.6999 11.5 51.9999 11.5H53.5999C53.8999 11.5 54.2 11.8 54.2 12.1V13.7C54.2 14 54.4999 14.3 54.7999 14.3H56.4C56.7 14.3 56.9999 14 56.9999 13.7V11.5V9.29995C56.9999 8.99995 56.7 8.69995 56.4 8.69995H54.2H51.4H49.2C48.9 8.69995 48.5999 8.99995 48.5999 9.29995V11.5V13.7C48.4999 14.1 48.8 14.3 49.2 14.3Z" fill="#5F676D" fill-opacity="0.4"/>
<path d="M60.6 14.3H62.2C62.5 14.3 62.8 14 62.8 13.7V12.1C62.8 11.8 62.5 11.5 62.2 11.5H60.6C60.3 11.5 60 11.8 60 12.1V13.7C60 14.1 60.2 14.3 60.6 14.3Z" fill="#5F676D" fill-opacity="0.4"/>
<path d="M45.7 16.5999C45.7 16.8999 45.9999 17.1999 46.2999 17.1999H47.9C48.2 17.1999 48.5 16.8999 48.5 16.5999V14.9999C48.5 14.6999 48.2 14.3999 47.9 14.3999H46.2999C45.9999 14.3999 45.7 14.6999 45.7 14.9999V16.5999Z" fill="#5F676D" fill-opacity="0.4"/>
<path d="M32.1 20.0999H34.3H36.5C36.8 20.0999 37.1 19.7999 37.1 19.4999V17.2999V16.6999V14.9999C37.1 14.6999 36.8 14.3999 36.5 14.3999H34.9C34.6 14.3999 34.3 14.6999 34.3 14.9999V16.5999C34.3 16.8999 34 17.1999 33.7 17.1999H32.1C31.8 17.1999 31.5 17.4999 31.5 17.7999V19.3999C31.5 19.7999 31.7 20.0999 32.1 20.0999Z" fill="#5F676D" fill-opacity="0.4"/>
<path d="M50.8 17.2H49.2001C48.9001 17.2 48.6 17.4999 48.6 17.7999V19.4C48.6 19.6999 48.3 20 48 20H46.4001C46.1001 20 45.8 20.3 45.8 20.6V22.2C45.8 22.5 46.1001 22.7999 46.4001 22.7999H48.6H51.5H52H53.6C53.9 22.7999 54.2001 22.5 54.2001 22.2V20.6C54.2001 20.3 53.9 20 53.6 20H52C51.7 20 51.4001 19.6999 51.4001 19.4V17.7999C51.4001 17.4999 51.1 17.2 50.8 17.2Z" fill="#5F676D" fill-opacity="0.4"/>
<path d="M37.7999 22.8999H39.4C39.7 22.8999 40 22.5999 40 22.2999V20.6999C40 20.3999 39.7 20.0999 39.4 20.0999H37.7999C37.4999 20.0999 37.2 20.3999 37.2 20.6999V22.2999C37.2 22.5999 37.3999 22.8999 37.7999 22.8999Z" fill="#5F676D" fill-opacity="0.4"/>
<path d="M57.0999 22.2999C57.0999 22.5999 56.7999 22.8999 56.4999 22.8999H54.8999C54.5999 22.8999 54.2999 23.1999 54.2999 23.4999V25.6999V27.9999C54.2999 28.2999 53.9999 28.5999 53.6999 28.5999H51.9999C51.6999 28.5999 51.3999 28.2999 51.3999 27.9999V26.3999C51.3999 26.0999 51.0999 25.7999 50.7999 25.7999H49.1999C48.8999 25.7999 48.5999 26.0999 48.5999 26.3999V27.9999C48.5999 28.2999 48.2999 28.5999 47.9999 28.5999H46.3999C46.0999 28.5999 45.7999 28.2999 45.7999 27.9999V25.7999V25.1999V23.5999C45.7999 23.2999 45.4999 22.9999 45.1999 22.9999H43.5999C43.2999 22.9999 42.9999 23.2999 42.9999 23.5999V25.7999V28.5999V30.7999C42.9999 31.0999 42.6999 31.3999 42.3999 31.3999H40.7999C40.4999 31.3999 40.1999 31.6999 40.1999 31.9999V33.5999C40.1999 33.8999 39.8999 34.1999 39.5999 34.1999H37.9999C37.6999 34.1999 37.3999 34.4999 37.3999 34.7999V36.9999V39.1999C37.3999 39.4999 37.6999 39.7999 37.9999 39.7999H39.5999C39.8999 39.7999 40.1999 39.4999 40.1999 39.1999V37.5999C40.1999 37.2999 40.4999 36.9999 40.7999 36.9999H42.9999H45.1999C45.4999 36.9999 45.7999 36.6999 45.7999 36.3999V34.1999V31.9999C45.7999 31.6999 46.0999 31.3999 46.3999 31.3999H47.9999C48.2999 31.3999 48.5999 31.6999 48.5999 31.9999V34.1999V36.3999C48.5999 36.6999 48.8999 36.9999 49.1999 36.9999H50.7999C51.0999 36.9999 51.3999 36.6999 51.3999 36.3999V34.7999C51.3999 34.4999 51.6999 34.1999 51.9999 34.1999H53.5999C53.8999 34.1999 54.1999 33.8999 54.1999 33.5999V31.9999C54.1999 31.6999 54.4999 31.3999 54.7999 31.3999H56.9999H59.1999C59.4999 31.3999 59.7999 31.6999 59.7999 31.9999V33.5999C59.7999 33.8999 60.0999 34.1999 60.3999 34.1999H62.5999H65.4999H68.2999H71.0999H73.9999H74.5999H76.1999C76.4999 34.1999 76.7999 33.8999 76.7999 33.5999V31.9999C76.7999 31.6999 76.4999 31.3999 76.1999 31.3999H73.9999H71.0999H68.2999H65.4999H63.2999C62.9999 31.3999 62.6999 31.0999 62.6999 30.7999V28.5999V25.7999V23.5999C62.6999 23.2999 62.9999 22.9999 63.2999 22.9999H65.4999H67.6999C67.9999 22.9999 68.2999 22.6999 68.2999 22.3999V20.1999V17.2999V14.9999C68.2999 14.6999 67.9999 14.3999 67.6999 14.3999H65.4999H64.9999H63.3999C63.0999 14.3999 62.7999 14.6999 62.7999 14.9999V16.5999C62.7999 16.8999 63.0999 17.1999 63.3999 17.1999H64.9999C65.2999 17.1999 65.5999 17.4999 65.5999 17.7999V19.3999C65.5999 19.6999 65.2999 19.9999 64.9999 19.9999H62.7999H59.9999H57.7999C57.4999 19.9999 57.1999 20.2999 57.1999 20.5999V22.2999H57.0999ZM57.6999 28.5999C57.3999 28.5999 57.0999 28.2999 57.0999 27.9999V26.3999C57.0999 26.0999 57.3999 25.7999 57.6999 25.7999H59.2999C59.5999 25.7999 59.8999 26.0999 59.8999 26.3999V27.9999C59.8999 28.2999 59.5999 28.5999 59.2999 28.5999H57.6999Z" fill="#5F676D" fill-opacity="0.4"/>
<path d="M34.9001 25.8H36.5C36.8 25.8 37.1 25.5 37.1 25.2V23.6C37.1 23.3 36.8 23 36.5 23H34.9001C34.6001 23 34.3 23.3 34.3 23.6V25.2C34.3 25.5 34.6001 25.8 34.9001 25.8Z" fill="#5F676D" fill-opacity="0.4"/>
<path d="M32.1 28.6H33.7C34 28.6 34.3 28.3 34.3 28V26.4C34.3 26.1 34 25.8 33.7 25.8H32.1C31.8 25.8 31.5 26.1 31.5 26.4V28C31.5 28.3 31.7 28.6 32.1 28.6Z" fill="#5F676D" fill-opacity="0.4"/>
<path d="M67.9 25.8H66.3C66 25.8 65.7 26.1 65.7 26.4V28C65.7 28.3 66 28.6 66.3 28.6H67.9C68.2 28.6 68.5 28.3 68.5 28V26.4C68.5 26 68.2 25.8 67.9 25.8Z" fill="#5F676D" fill-opacity="0.4"/>
<path d="M22.8999 32.1C22.8999 31.8 22.5999 31.5 22.2999 31.5H19.9999H17.1999H14.9999C14.6999 31.5 14.3999 31.8 14.3999 32.1V33.7C14.3999 34 14.0999 34.3 13.7999 34.3H12.1999C11.8999 34.3 11.5999 34.6 11.5999 34.9V36.5C11.5999 36.8 11.8999 37.1 12.1999 37.1H14.3999H16.5999C16.8999 37.1 17.1999 37.4 17.1999 37.7V39.3C17.1999 39.6 17.4999 39.9 17.7999 39.9H19.3999C19.6999 39.9 19.9999 39.6 19.9999 39.3V37.1V34.9C19.9999 34.6 20.2999 34.3 20.5999 34.3H22.1999C22.4999 34.3 22.7999 34 22.7999 33.7V32.1H22.8999Z" fill="#5F676D" fill-opacity="0.4"/>
<path d="M28.6 33.7C28.6 34 28.3 34.3 28 34.3H26.4C26.1 34.3 25.8 34.6 25.8 34.9V37.1V39.3C25.8 39.6 26.1 39.9 26.4 39.9H28C28.3 39.9 28.6 39.6 28.6 39.3V37.7C28.6 37.4 28.9001 37.1 29.2001 37.1H30.8C31.1 37.1 31.4 36.8 31.4 36.5V34.3V33.7V32.1C31.4 31.8 31.1 31.5 30.8 31.5H29.2001C28.9001 31.5 28.6 31.8 28.6 32.1V33.7Z" fill="#5F676D" fill-opacity="0.4"/>
<path d="M37.1999 32.1C37.1999 31.8 37.4999 31.5 37.7999 31.5H39.3999C39.6999 31.5 39.9999 31.2 39.9999 30.9V28.7001V28V26.4C39.9999 26.1 39.6999 25.8 39.3999 25.8H37.7999C37.4999 25.8 37.1999 26.1 37.1999 26.4V28C37.1999 28.3 36.8999 28.6 36.5999 28.6H34.9999C34.6999 28.6 34.3999 28.9001 34.3999 29.2001V31.4V33.6C34.3999 33.9 34.6999 34.2001 34.9999 34.2001H36.5999C36.8999 34.2001 37.1999 33.9 37.1999 33.6V32.1Z" fill="#5F676D" fill-opacity="0.4"/>
<path d="M89.1 34.3H90.7C91 34.3 91.3 34 91.3 33.7V32.1C91.3 31.8 91 31.5 90.7 31.5H88.5H85.6H83.4C83.1 31.5 82.8 31.8 82.8 32.1V34.3V36.5C82.8 36.8 83.1 37.1 83.4 37.1H85C85.3 37.1 85.6 36.8 85.6 36.5V34.9C85.6 34.6 85.9 34.3 86.2 34.3H88.4H89.1Z" fill="#5F676D" fill-opacity="0.4"/>
<path d="M9.29995 40H10.9C11.2 40 11.5 39.7 11.5 39.4V37.7999C11.5 37.4999 11.2 37.2 10.9 37.2H9.29995C8.99995 37.2 8.69995 37.4999 8.69995 37.7999V39.4C8.69995 39.7 8.89995 40 9.29995 40Z" fill="#5F676D" fill-opacity="0.4"/>
<path d="M53.6 37.0999H52C51.7 37.0999 51.4001 37.3999 51.4001 37.6999V39.2999C51.4001 39.5999 51.1 39.8999 50.8 39.8999H48.6H48H46.4001C46.1001 39.8999 45.8 40.1999 45.8 40.4999V42.0999C45.8 42.3999 46.1001 42.6999 46.4001 42.6999H48.6H51.5H54.3H54.9001H56.5C56.8 42.6999 57.1 42.3999 57.1 42.0999V40.4999C57.1 40.1999 56.8 39.8999 56.5 39.8999H54.9001C54.6001 39.8999 54.3 39.5999 54.3 39.2999V37.6999C54.2 37.3999 54 37.0999 53.6 37.0999Z" fill="#5F676D" fill-opacity="0.4"/>
<path d="M60 37.1V36.5V34.9001C60 34.6001 59.7 34.3 59.4 34.3H57.7999C57.4999 34.3 57.2 34.6001 57.2 34.9001V37.1V39.3C57.2 39.6 57.4999 39.9001 57.7999 39.9001H59.4C59.7 39.9001 60 39.6 60 39.3V37.1Z" fill="#5F676D" fill-opacity="0.4"/>
<path d="M71.3 37.0999H70.7H69.1C68.8 37.0999 68.5 37.3999 68.5 37.6999V39.2999C68.5 39.5999 68.8 39.8999 69.1 39.8999H71.3H72H73.6C73.9 39.8999 74.2 39.5999 74.2 39.2999V37.6999C74.2 37.3999 73.9 37.0999 73.6 37.0999H71.3Z" fill="#5F676D" fill-opacity="0.4"/>
<path d="M82.0999 37.0999H79.8999H79.2999H77.6999C77.3999 37.0999 77.0999 37.3999 77.0999 37.6999V39.2999C77.0999 39.5999 77.3999 39.8999 77.6999 39.8999H79.8999H80.4999H82.0999C82.3999 39.8999 82.6999 39.5999 82.6999 39.2999V37.6999C82.7999 37.3999 82.4999 37.0999 82.0999 37.0999Z" fill="#5F676D" fill-opacity="0.4"/>
<path d="M16.5999 40H14.9999C14.6999 40 14.3999 40.3 14.3999 40.6V42.2C14.3999 42.5 14.6999 42.8 14.9999 42.8H16.5999C16.8999 42.8 17.1999 42.5 17.1999 42.2V40.6C17.1999 40.3 16.8999 40 16.5999 40Z" fill="#5F676D" fill-opacity="0.4"/>
<path d="M22.2999 40H20.6999C20.3999 40 20.0999 40.3 20.0999 40.6V42.2C20.0999 42.5 20.3999 42.8 20.6999 42.8H22.2999C22.5999 42.8 22.8999 42.5 22.8999 42.2V40.6C22.8999 40.3 22.5999 40 22.2999 40Z" fill="#5F676D" fill-opacity="0.4"/>
<path d="M34.3 40.6C34.3 40.3 34 40 33.7 40H32.1C31.8 40 31.5 40.3 31.5 40.6V42.2C31.5 42.5 31.8 42.8 32.1 42.8H33.7C34 42.8 34.3 42.5 34.3 42.2V40.6Z" fill="#5F676D" fill-opacity="0.4"/>
<path d="M65.7 40H65H63.4001C63.1001 40 62.8 40.3 62.8 40.6V42.2C62.8 42.5 63.1001 42.8 63.4001 42.8H65.6H66.2H67.8001C68.1001 42.8 68.4001 42.5 68.4001 42.2V40.6C68.4001 40.3 68.1001 40 67.8001 40H65.7Z" fill="#5F676D" fill-opacity="0.4"/>
<path d="M82.8 42.2C82.8 42.5 83.1 42.8 83.4 42.8H85C85.3 42.8 85.6 42.5 85.6 42.2V40.6C85.6 40.3 85.3 40 85 40H83.4C83.1 40 82.8 40.3 82.8 40.6V42.2Z" fill="#5F676D" fill-opacity="0.4"/>
<path d="M34.9001 59.8999H36.5C36.8 59.8999 37.1 59.5999 37.1 59.2999V57.6999C37.1 57.3999 36.8 57.0999 36.5 57.0999H34.9001C34.6001 57.0999 34.3 57.3999 34.3 57.6999V59.2999C34.3 59.6999 34.6001 59.8999 34.9001 59.8999Z" fill="#5F676D" fill-opacity="0.4"/>
<path d="M45.7 59.2999C45.7 59.5999 45.9999 59.8999 46.2999 59.8999H47.9C48.2 59.8999 48.5 59.5999 48.5 59.2999V57.6999C48.5 57.3999 48.2 57.0999 47.9 57.0999H46.2999C45.9999 57.0999 45.7 57.3999 45.7 57.6999V59.2999Z" fill="#5F676D" fill-opacity="0.4"/>
<path d="M88.5 57.6999C88.5 57.3999 88.2 57.0999 87.9 57.0999H86.3C86 57.0999 85.7 57.3999 85.7 57.6999V59.2999C85.7 59.5999 86 59.8999 86.3 59.8999H87.9C88.2 59.8999 88.5 59.5999 88.5 59.2999V57.6999Z" fill="#5F676D" fill-opacity="0.4"/>
<path d="M45.6999 60.6C45.6999 60.3 45.3999 60 45.0999 60H43.4999C43.1999 60 42.8999 60.3 42.8999 60.6V62.2C42.8999 62.5 43.1999 62.8 43.4999 62.8H45.0999C45.3999 62.8 45.6999 62.5 45.6999 62.2V60.6Z" fill="#5F676D" fill-opacity="0.4"/>
<path d="M59.2999 59.8999H57.6999C57.3999 59.8999 57.0999 59.5999 57.0999 59.2999V57.6999C57.0999 57.3999 56.7999 57.0999 56.4999 57.0999H54.2999H53.6999H51.9999C51.6999 57.0999 51.3999 57.3999 51.3999 57.6999V59.2999C51.3999 59.5999 51.6999 59.8999 51.9999 59.8999H53.5999C53.8999 59.8999 54.1999 60.1999 54.1999 60.4999V62.0999C54.1999 62.3999 54.4999 62.6999 54.7999 62.6999H56.3999C56.6999 62.6999 56.9999 62.9999 56.9999 63.2999V64.9999C56.9999 65.2999 57.2999 65.5999 57.5999 65.5999H59.9999H60.5999H62.1999C62.4999 65.5999 62.7999 65.2999 62.7999 64.9999V63.3999C62.7999 63.0999 62.4999 62.7999 62.1999 62.7999H60.5999C60.2999 62.7999 59.9999 62.4999 59.9999 62.1999V60.5999C59.9999 60.1999 59.6999 59.8999 59.2999 59.8999Z" fill="#5F676D" fill-opacity="0.4"/>
<path d="M85.6 63.4001C85.6 63.1001 85.3 62.8 85 62.8H83.4C83.1 62.8 82.8 63.1001 82.8 63.4001V65C82.8 65.3 83.1 65.6 83.4 65.6H85C85.3 65.6 85.6 65.3 85.6 65V63.4001Z" fill="#5F676D" fill-opacity="0.4"/>
<path d="M74.7999 68.5H76.3999C76.6999 68.5 76.9999 68.2001 76.9999 67.9001V66.3001C76.9999 66.0001 76.6999 65.7 76.3999 65.7H74.1999H71.9999C71.6999 65.7 71.3999 65.4 71.3999 65.1V63.5C71.3999 63.2 71.6999 62.9001 71.9999 62.9001H74.1999H76.9999H79.8999H82.0999C82.3999 62.9001 82.6999 62.6 82.6999 62.3V60.1V59.5V57.9001C82.6999 57.6001 82.3999 57.3 82.0999 57.3H80.4999C80.1999 57.3 79.8999 57.6001 79.8999 57.9001V59.5C79.8999 59.8 79.5999 60.1 79.2999 60.1H76.9999H74.1999H71.2999H68.4999H66.2999C65.9999 60.1 65.6999 59.8 65.6999 59.5V57.9001C65.6999 57.6001 65.3999 57.3 65.0999 57.3H62.8999H62.2999H60.6999C60.3999 57.3 60.0999 57.6001 60.0999 57.9001V59.5C60.0999 59.8 60.3999 60.1 60.6999 60.1H62.2999C62.5999 60.1 62.8999 60.4001 62.8999 60.7001V62.3C62.8999 62.6 63.1999 62.9001 63.4999 62.9001H65.6999H67.8999C68.1999 62.9001 68.4999 63.2 68.4999 63.5V65C68.4999 65.3 68.1999 65.6 67.8999 65.6H65.6999H63.4999C63.1999 65.6 62.8999 65.9 62.8999 66.2V68.4001V70.6C62.8999 70.9 63.1999 71.2 63.4999 71.2H64.9999C65.2999 71.2 65.5999 71.5001 65.5999 71.8001V73.4001C65.5999 73.7001 65.2999 74 64.9999 74H63.3999C63.0999 74 62.7999 74.3 62.7999 74.6V76.2C62.7999 76.5 63.0999 76.8001 63.3999 76.8001H65.5999H67.7999C68.0999 76.8001 68.3999 76.5 68.3999 76.2V74V71.2V69C68.3999 68.7 68.6999 68.4001 68.9999 68.4001H71.1999H74.0999H74.7999V68.5Z" fill="#5F676D" fill-opacity="0.4"/>
<path d="M82.0999 65.5999H80.4999C80.1999 65.5999 79.8999 65.8999 79.8999 66.1999V67.7999C79.8999 68.0999 80.1999 68.3999 80.4999 68.3999H82.0999C82.3999 68.3999 82.6999 68.0999 82.6999 67.7999V66.1999C82.7999 65.8999 82.4999 65.5999 82.0999 65.5999Z" fill="#5F676D" fill-opacity="0.4"/>
<path d="M86.1999 68.5H87.7999C88.0999 68.5 88.3999 68.2 88.3999 67.9V66.3C88.3999 66 88.0999 65.7 87.7999 65.7H86.1999C85.8999 65.7 85.5999 66 85.5999 66.3V67.9C85.5999 68.2 85.8999 68.5 86.1999 68.5Z" fill="#5F676D" fill-opacity="0.4"/>
<path d="M39.4 68.5H37.7999C37.4999 68.5 37.2 68.8 37.2 69.1V70.7C37.2 71 37.4999 71.3 37.7999 71.3H39.4C39.7 71.3 40 71 40 70.7V69.1C40 68.8 39.7 68.5 39.4 68.5Z" fill="#5F676D" fill-opacity="0.4"/>
<path d="M54.9001 71.2999H56.5C56.8 71.2999 57.1 70.9999 57.1 70.6999V68.4999V66.2999C57.1 65.9999 56.8 65.6999 56.5 65.6999H54.9001C54.6001 65.6999 54.3 65.3999 54.3 65.0999V63.4999C54.3 63.1999 54.0001 62.8999 53.7001 62.8999H51.5H48.6H48H46.4001C46.1001 62.8999 45.8 63.1999 45.8 63.4999V64.9999C45.8 65.2999 46.1001 65.5999 46.4001 65.5999H48.6H50.8C51.1 65.5999 51.4001 65.8999 51.4001 66.1999V67.7999C51.4001 68.0999 51.7 68.3999 52 68.3999H53.6C53.9 68.3999 54.2001 68.6999 54.2001 68.9999V70.5999C54.2001 71.0999 54.5001 71.2999 54.9001 71.2999Z" fill="#5F676D" fill-opacity="0.4"/>
<path d="M28 71.3H26.4C26.1 71.3 25.8 71.6 25.8 71.9V73.5C25.8 73.8 26.1 74.1 26.4 74.1H28C28.3 74.1 28.6 73.8 28.6 73.5V72C28.6 71.6 28.3 71.3 28 71.3Z" fill="#5F676D" fill-opacity="0.4"/>
<path d="M53.5999 71.3H51.9999C51.6999 71.3 51.3999 71.6 51.3999 71.9V73.5C51.3999 73.8 51.6999 74.1 51.9999 74.1H53.5999C53.8999 74.1 54.1999 73.8 54.1999 73.5V72C54.1999 71.6 53.9999 71.3 53.5999 71.3Z" fill="#5F676D" fill-opacity="0.4"/>
<path d="M45.6999 79.3C45.6999 79.6 45.9999 79.9 46.2999 79.9H47.8999C48.1999 79.9 48.4999 79.6 48.4999 79.3V77.7C48.4999 77.4 48.7999 77.1 49.0999 77.1H50.6999C50.9999 77.1 51.2999 76.8 51.2999 76.5V74.9C51.2999 74.6 50.9999 74.3 50.6999 74.3H49.0999C48.7999 74.3 48.4999 74 48.4999 73.7V71.5V70.9V69.3C48.4999 69 48.1999 68.7 47.8999 68.7H46.2999C45.9999 68.7 45.6999 69 45.6999 69.3V70.9C45.6999 71.2 45.3999 71.5 45.0999 71.5H42.8999H40.6999C40.3999 71.5 40.0999 71.8 40.0999 72.1V74.3V76.5C40.0999 76.8 40.3999 77.1 40.6999 77.1H42.8999H45.0999C45.3999 77.1 45.6999 77.4 45.6999 77.7V79.3Z" fill="#5F676D" fill-opacity="0.4"/>
<path d="M42.2 79.8999H40.6C40.3 79.8999 40 80.1999 40 80.4999V82.0999C40 82.3999 40.3 82.6999 40.6 82.6999H42.2C42.5 82.6999 42.8 82.3999 42.8 82.0999V80.4999C42.8 80.1999 42.6 79.8999 42.2 79.8999Z" fill="#5F676D" fill-opacity="0.4"/>
<path d="M16.5999 82.8H14.9999C14.6999 82.8 14.3999 83.1 14.3999 83.4V85.6V87.8C14.3999 88.1 14.6999 88.4 14.9999 88.4H16.5999C16.8999 88.4 17.1999 88.1 17.1999 87.8V85.6V85V83.4C17.1999 83 16.8999 82.8 16.5999 82.8Z" fill="#5F676D" fill-opacity="0.4"/>
<path d="M40 83.4C40 83.1 39.7 82.8 39.4 82.8H37.7999C37.4999 82.8 37.2 83.1 37.2 83.4V85C37.2 85.3 37.4999 85.6 37.7999 85.6H39.4C39.7 85.6 40 85.3 40 85V83.4Z" fill="#5F676D" fill-opacity="0.4"/>
<path d="M62.7999 83.3999C62.7999 83.0999 62.4999 82.7999 62.1999 82.7999H60.5999C60.2999 82.7999 59.9999 82.4999 59.9999 82.1999V79.9999V77.1999V74.2999V73.6999V71.9999C59.9999 71.6999 59.6999 71.3999 59.3999 71.3999H57.7999C57.4999 71.3999 57.1999 71.6999 57.1999 71.9999V74.1999V76.3999C57.1999 76.6999 56.8999 76.9999 56.5999 76.9999H54.3999H51.9999C51.6999 76.9999 51.3999 77.2999 51.3999 77.5999V79.7999V81.9999C51.3999 82.2999 51.6999 82.5999 51.9999 82.5999H53.5999C53.8999 82.5999 54.1999 82.2999 54.1999 81.9999V80.3999C54.1999 80.0999 54.4999 79.7999 54.7999 79.7999H56.3999C56.6999 79.7999 56.9999 80.0999 56.9999 80.3999V81.9999C56.9999 82.2999 56.6999 82.5999 56.3999 82.5999H54.7999C54.4999 82.5999 54.1999 82.8999 54.1999 83.1999V85.3999V87.5999C54.1999 87.8999 54.4999 88.1999 54.7999 88.1999H56.3999C56.6999 88.1999 56.9999 87.8999 56.9999 87.5999V85.9999C56.9999 85.6999 57.2999 85.3999 57.5999 85.3999H59.9999H60.5999H62.1999C62.4999 85.3999 62.7999 85.0999 62.7999 84.7999V83.3999Z" fill="#5F676D" fill-opacity="0.4"/>
<path d="M67.8999 82.8H66.2999C65.9999 82.8 65.6999 83.1 65.6999 83.4V85C65.6999 85.3 65.3999 85.6 65.0999 85.6H63.4999C63.1999 85.6 62.8999 85.9 62.8999 86.2V88.4V90.6C62.8999 90.9 63.1999 91.2 63.4999 91.2H65.6999H67.8999C68.1999 91.2 68.4999 90.9 68.4999 90.6V88.4V85.6V85V83.4C68.4999 83 68.1999 82.8 67.8999 82.8Z" fill="#5F676D" fill-opacity="0.4"/>
<path d="M28.6 85.5999V83.4C28.6 83.1 28.9 82.8 29.2 82.8H30.7999C31.0999 82.8 31.4 82.4999 31.4 82.1999V80.5999C31.4 80.2999 31.7 80 32 80H33.5999C33.8999 80 34.2 80.2999 34.2 80.5999V82.1999C34.2 82.4999 34.5 82.8 34.7999 82.8H36.4C36.7 82.8 37 82.4999 37 82.1999V80V77.8C37 77.5 36.7 77.1999 36.4 77.1999H34.7999C34.5 77.1999 34.2 76.8999 34.2 76.5999V75C34.2 74.7 34.5 74.4 34.7999 74.4H36.4C36.7 74.4 37 74.1 37 73.8V72C37 71.7 36.7 71.4 36.4 71.4H34.7999C34.5 71.4 34.2 71.1 34.2 70.8V69.1999C34.2 68.8999 34.5 68.5999 34.7999 68.5999H36.4C36.7 68.5999 37 68.3 37 68V66.4C37 66.1 37.2999 65.8 37.5999 65.8H39.2C39.5 65.8 39.7999 66.1 39.7999 66.4V68C39.7999 68.3 40.1 68.5999 40.4 68.5999H42.5999H43.2H44.7999C45.0999 68.5999 45.4 68.3 45.4 68V66.4C45.4 66.1 45.0999 65.8 44.7999 65.8H43.2C42.9 65.8 42.5999 65.4999 42.5999 65.1999V63.5999C42.5999 63.2999 42.2999 63 42 63H40H37.2H35C34.7 63 34.4 63.2999 34.4 63.5999V65C34.4 65.3 34.0999 65.5999 33.7999 65.5999H32.2C31.9 65.5999 31.6 65.3 31.6 65V63.4C31.6 63.1 31.9 62.7999 32.2 62.7999H33.7999C34.0999 62.7999 34.4 62.5 34.4 62.2V60.5999C34.4 60.2999 34.0999 60 33.7999 60H32.2C31.9 60 31.6 59.7 31.6 59.4V57.7999C31.6 57.4999 31.2999 57.2 31 57.2H28.7999H26H25.4H23.8C23.5 57.2 23.2 57.4999 23.2 57.7999V59.4C23.2 59.7 23.5 60 23.8 60H25.4C25.7 60 26 60.2999 26 60.5999V62.2C26 62.5 25.7 62.7999 25.4 62.7999H23.8C23.5 62.7999 23.2 62.5 23.2 62.2V60.5999C23.2 60.2999 22.9 60 22.6 60H21C20.7 60 20.4 59.7 20.4 59.4V57.7999C20.4 57.4999 20.1 57.2 19.8 57.2H17.6H14.7H11.9H9.29995C8.99995 57.2 8.69995 57.4999 8.69995 57.7999V60V62.9V65C8.69995 65.3 8.99995 65.5999 9.29995 65.5999H10.9C11.2 65.5999 11.5 65.8999 11.5 66.1999V67.8C11.5 68.1 11.8 68.4 12.1 68.4H13.7C14 68.4 14.3 68.1 14.3 67.8V65.5999V63.4C14.3 63.1 14.6 62.7999 14.9 62.7999H17.1H19.3C19.6 62.7999 19.9 63.1 19.9 63.4V65C19.9 65.3 19.6 65.5999 19.3 65.5999H17.7C17.4 65.5999 17.1 65.8999 17.1 66.1999V67.8C17.1 68.1 16.8 68.4 16.5 68.4H15C14.7 68.4 14.4 68.7 14.4 69V71.1999V73.4C14.4 73.7 14.1 74 13.8 74H12.2C11.9 74 11.6 73.7 11.6 73.4V71.1999V70.5999V69C11.6 68.7 11.3 68.4 11 68.4H9.29995C8.99995 68.4 8.69995 68.7 8.69995 69V71.1999V74V76.9V79.6999V81.9C8.69995 82.2 8.99995 82.5 9.29995 82.5H11.5H12.1H13.7C14 82.5 14.3 82.2 14.3 81.9V80.3C14.3 80 14 79.6999 13.7 79.6999H12.1C11.8 79.6999 11.5 79.3999 11.5 79.0999V77.5C11.5 77.2 11.8 76.9 12.1 76.9H13.7C14 76.9 14.3 77.2 14.3 77.5V79.0999C14.3 79.3999 14.6 79.6999 14.9 79.6999H16.5C16.8 79.6999 17.1 80 17.1 80.3V81.9C17.1 82.2 17.4 82.5 17.7 82.5H19.3C19.6 82.5 19.9 82.2 19.9 81.9V80.3C19.9 80 20.2 79.6999 20.5 79.6999H22.1C22.4 79.6999 22.7 80 22.7 80.3V81.9C22.7 82.2 23 82.5 23.3 82.5H24.9C25.2 82.5 25.5 82.7999 25.5 83.0999V85C25.5 85.2999 25.2 85.5999 24.9 85.5999H23.3C23 85.5999 22.7 85.8999 22.7 86.1999V88.4V90.5999C22.7 90.8999 23 91.1999 23.3 91.1999H24.9C25.2 91.1999 25.5 90.8999 25.5 90.5999V89C25.5 88.7 25.8 88.4 26.1 88.4H28C28.2999 88.4 28.6 88.1 28.6 87.8V85.5999ZM17.8 77.0999C17.5 77.0999 17.2 76.7999 17.2 76.5V74.9C17.2 74.6 17.5 74.3 17.8 74.3H19.4C19.7 74.3 20 74.6 20 74.9V76.5C20 76.7999 19.7 77.0999 19.4 77.0999H17.8ZM31.5 74.1999V76.4C31.5 76.7 31.2 77 30.9 77H28.7H25.9H23.7C23.4 77 23.1 76.7 23.1 76.4V74.1999V71.4V69.1999C23.1 68.8999 23.4 68.5999 23.7 68.5999H25.9H28.7H30.9C31.2 68.5999 31.5 68.8999 31.5 69.1999V71.4V74.1999Z" fill="#5F676D" fill-opacity="0.4"/>
<path d="M36.5 85.5999H34.2999H32.0999C31.7999 85.5999 31.5 85.8999 31.5 86.1999V87.7999C31.5 88.0999 31.1999 88.3999 30.9 88.3999H29.2999C28.9999 88.3999 28.7 88.6999 28.7 88.9999V90.5999C28.7 90.8999 28.9999 91.1999 29.2999 91.1999H31.5H34.2999H36.5C36.8 91.1999 37.0999 90.8999 37.0999 90.5999V88.3999V86.1999C37.1999 85.8999 36.9 85.5999 36.5 85.5999Z" fill="#5F676D" fill-opacity="0.4"/>
<path d="M42.2 85.5999H40.6C40.3 85.5999 40 85.8999 40 86.1999V87.7999C40 88.0999 40.3 88.3999 40.6 88.3999H42.2C42.5 88.3999 42.8 88.0999 42.8 87.7999V86.1999C42.8 85.8999 42.6 85.5999 42.2 85.5999Z" fill="#5F676D" fill-opacity="0.4"/>
<path d="M13.7 88.3999H12.1C11.8 88.3999 11.5 88.6999 11.5 88.9999V90.5999C11.5 90.8999 11.8 91.1999 12.1 91.1999H13.7C14 91.1999 14.3 90.8999 14.3 90.5999V88.9999C14.3 88.6999 14.1 88.3999 13.7 88.3999Z" fill="#5F676D" fill-opacity="0.4"/>
<path d="M53.6 88.4H51.4001H49.2001C48.9001 88.4 48.6 88.1 48.6 87.8V86.2C48.6 85.9 48.9001 85.6 49.2001 85.6H50.8C51.1 85.6 51.4001 85.3 51.4001 85V83.4C51.4001 83.1 51.1 82.8 50.8 82.8H48.6H46.4001C46.1001 82.8 45.8 83.1 45.8 83.4V85.6V88.4V90.6C45.8 90.9 46.1001 91.2 46.4001 91.2H48.6H51.5H52H53.6C53.9 91.2 54.2001 90.9 54.2001 90.6V89C54.2001 88.7 54 88.4 53.6 88.4Z" fill="#5F676D" fill-opacity="0.4"/>
<path d="M88.4999 8.69995H85.5999H82.7999H79.9999H77.0999H74.2999H71.3999V11.5V14.3V17.2V20V22.8V25.6V28.5H74.2999H77.0999H79.9999H82.7999H85.5999H88.4999H91.2999V25.6V22.8V20V17.2V14.3V11.5V8.69995H88.4999ZM88.4999 14.3V17.2V20V22.8V25.6H85.5999H82.7999H79.9999H77.0999H74.2999V22.8V20V17.2V14.3V11.5H77.0999H79.9999H82.7999H85.5999H88.4999V14.3Z" fill="#5F676D" fill-opacity="0.4"/>
<path d="M82.6999 14.3H79.8999H77.0999V17.2V20.1V22.9H79.8999H82.6999H82.7999H85.5999V20.1V17.2V14.3H82.7999H82.6999Z" fill="#5F676D" fill-opacity="0.4"/>
<path d="M85.5999 71.3999H82.7999H79.9999H77.0999H74.2999H71.3999V74.1999V76.9999V79.7999V82.6999V85.4999V88.2999V91.0999H74.2999H77.0999H79.9999H82.7999H85.5999H88.4999H91.2999V88.2999V85.4999V82.6999V79.7999V76.9999V74.1999V71.3999H88.4999H85.5999ZM88.4999 77.0999V79.8999V82.7999V85.5999V88.3999H85.5999H82.7999H79.9999H77.0999H74.2999V85.5999V82.7999V79.8999V77.0999V74.2999H77.0999H79.9999H82.7999H85.5999H88.4999V77.0999Z" fill="#5F676D" fill-opacity="0.4"/>
<path d="M82.6999 77.0999H79.8999H77.0999V79.8999V82.7999V85.5999H79.8999H82.6999H82.7999H85.5999V82.7999V79.8999V77.0999H82.7999H82.6999Z" fill="#5F676D" fill-opacity="0.4"/>
<path d="M14.4 28.6H17.2H20H22.8H25.7H28.5V25.7V22.9V20.1V17.3V14.4V11.6V8.69995H25.7H22.8H20H17.2H14.4H11.5H8.69995V11.5V14.3V17.2V20V22.8V25.6V28.5H11.5H14.4V28.6ZM11.5 22.9V20.1V17.3V14.4V11.6H14.4H17.2H20H22.8H25.7V14.4V17.3V20.1V22.9V25.7H22.8H20H17.2H14.4H11.5V22.9Z" fill="#5F676D" fill-opacity="0.4"/>
<path d="M19.9999 22.9H20.0999H22.8999V20.1V17.2V14.3H20.0999H19.9999H17.1999H14.3999V17.2V20.1V22.9H17.1999H19.9999Z" fill="#5F676D" fill-opacity="0.4"/>
<path d="M36.2773 46.5383H46.0775V46.9691H45.6467L43.7082 52.7846H42.5236L41.4467 49.3384H41.339L40.0466 52.7846H38.9697L37.0312 46.9691H36.2773V46.5383ZM39.9389 51.2769L41.2313 47.9384H42.4159L43.4929 51.3846H43.6005L45.0006 47.2922L44.7852 47.0768H38.7543L38.5389 47.2922L39.9389 51.2769Z" fill="#312F3B"/>
<path d="M46.7237 52.6769C46.4006 52.4616 46.0775 52.2462 45.8621 51.9231C45.4314 51.1692 45.4314 50.2 45.8621 49.4461C46.0775 49.123 46.4006 48.8 46.7237 48.6923C47.5853 48.3692 48.4468 48.3692 49.3084 48.6923C49.6314 48.9077 49.9545 49.123 50.1699 49.4461C50.6007 50.2 50.6007 51.1692 50.1699 51.9231C49.9545 52.2462 49.6314 52.5693 49.3084 52.6769C48.4468 53 47.4776 53 46.7237 52.6769ZM48.5545 52.2462C48.6622 52.1385 48.7699 51.9231 48.8776 51.7077C48.9853 50.9538 48.9853 50.3077 48.8776 49.5538C48.8776 49.3384 48.7699 49.123 48.5545 49.0153C48.2314 48.8 47.8006 48.8 47.4776 49.0153C47.3699 49.123 47.2622 49.3384 47.1545 49.5538C47.0468 50.3077 47.0468 50.9538 47.1545 51.7077C47.1545 51.9231 47.2622 52.1385 47.4776 52.2462C47.8006 52.4616 48.2314 52.4616 48.5545 52.2462Z" fill="#312F3B"/>
<path d="M50.7085 52.2466H51.247L51.4624 52.0313V48.9081H50.8162V48.4774H50.9239H51.0316C51.3547 48.4774 51.6777 48.4774 52.0008 48.4774C52.2162 48.4774 52.5393 48.3697 52.7547 48.262V49.2312H52.8624C52.9701 49.0158 53.0778 48.6927 53.2932 48.585C53.5085 48.3697 53.8316 48.3697 54.1547 48.3697H54.8009L54.5855 49.662H53.2932C53.1855 49.662 52.9701 49.662 52.8624 49.7697C52.7547 49.8774 52.7547 49.9851 52.7547 50.2005V52.139L52.9701 52.3543H54.3701V52.7851H50.7085V52.2466Z" fill="#312F3B"/>
<path d="M56.0931 52.5692C55.8777 52.3538 55.6623 52.0307 55.6623 51.6V48.9076H54.9084V48.4768C55.2315 48.4768 55.5546 48.3691 55.8777 48.1537C56.0931 48.046 56.3085 47.8307 56.4162 47.5076C56.5239 47.1845 56.6316 46.8614 56.7392 46.5383H57.17V48.4768H58.4624V48.9076H57.17V51.6C57.17 51.8153 57.17 51.923 57.2777 52.1384C57.3854 52.2461 57.4931 52.3538 57.6008 52.3538C57.7085 52.3538 57.8162 52.2461 57.9239 52.2461C58.0316 52.1384 58.1393 51.923 58.1393 51.7077C58.247 51.3846 58.247 51.1692 58.247 50.8461L58.6777 50.9538C58.6777 51.3846 58.5701 51.7077 58.4624 52.1384C58.3547 52.3538 58.247 52.6769 57.9239 52.7846C57.7085 52.8923 57.3854 53 57.0623 53C56.8469 52.8923 56.4162 52.7846 56.0931 52.5692Z" fill="#312F3B"/>
<path d="M59.001 52.2463H59.5394L59.7548 52.0309V46.8616H59.1087V46.4308C59.4318 46.4308 59.7548 46.4308 60.1856 46.3231C60.5087 46.2154 60.9395 46.1077 61.2626 46V48.9077H61.3702C61.4779 48.6924 61.6933 48.477 61.9087 48.3693C62.1241 48.2616 62.4472 48.1539 62.7703 48.1539C63.2011 48.1539 63.5241 48.2616 63.8472 48.5847C64.1703 48.9077 64.278 49.3385 64.278 49.6616V51.9232L64.4934 52.1386H64.9242V52.7847H59.2164L59.001 52.2463ZM61.2626 52.2463H62.4472L62.6626 52.0309V49.9847C62.6626 49.7693 62.6626 49.4462 62.4472 49.2308C62.3395 49.0154 62.1241 48.9077 61.9087 49.0154C61.6933 49.0154 61.5856 49.0154 61.4779 49.1231C61.3702 49.2308 61.2626 49.3385 61.1549 49.5539C61.0472 49.7693 61.0472 49.9847 61.0472 50.2001V51.9232L61.2626 52.2463Z" fill="#312F3B"/>
<path d="M66.001 52.2464H67.1856L67.401 52.031V47.0771L67.1856 46.9694H66.001L65.2471 48.9079H64.9241L65.1395 46.4309H71.1703L71.278 48.9079H70.9549L70.2011 46.9694H69.0164L68.8011 47.1848V52.1387L69.0164 52.3541H70.2011V52.7849H65.8933L66.001 52.2464Z" fill="#312F3B"/>
<path d="M71.4934 52.2466H72.0319L72.2473 52.0313V48.9081H71.4934V48.4774H71.6011H71.7088C72.0319 48.4774 72.355 48.4774 72.678 48.4774C72.8934 48.4774 73.2165 48.3697 73.4319 48.262V49.2312H73.6473C73.755 49.0158 73.8627 48.6927 74.0781 48.585C74.2935 48.3697 74.6165 48.3697 74.9396 48.3697H75.5858L75.3704 49.662H74.0781C73.9704 49.662 73.755 49.662 73.6473 49.7697C73.6473 49.8774 73.6473 49.9851 73.6473 50.2005V52.139L73.8627 52.3543H75.2627V52.7851H71.4934V52.2466Z" fill="#312F3B"/>
<path d="M75.9087 48.4771H80.9703V52.2463H81.6165V52.7848C81.1857 52.7848 80.8626 52.7848 80.5395 52.7848C80.2165 52.7848 80.0011 52.8925 79.678 52.8925V52.1387H79.5703C79.4626 52.354 79.2472 52.5694 78.9241 52.6771C78.7087 52.7848 78.3857 52.8925 78.0626 52.8925C77.6318 52.8925 77.3087 52.7848 76.9856 52.4617C76.6626 52.1387 76.5549 51.7079 76.5549 51.3848V49.1232L76.3395 48.9078H75.9087V48.4771ZM78.0626 51.9233C78.1703 52.1387 78.3857 52.2463 78.601 52.1387C78.8164 52.1387 79.1395 52.031 79.2472 51.8156C79.4626 51.4925 79.4626 51.1694 79.4626 50.8463V49.1232L79.2472 48.9078H77.9549V51.0617C77.9549 51.3848 77.9549 51.6002 78.0626 51.9233Z" fill="#312F3B"/>
<path d="M83.6628 52.8926C83.5551 52.8926 83.3397 52.8926 83.232 52.8926C83.1243 52.8926 82.9089 52.8926 82.8013 52.7849C82.5859 52.7849 82.4782 52.7849 82.2628 52.7849H82.1551L81.9397 50.9541H82.3705C82.4782 51.3849 82.6936 51.8157 83.0166 52.031C83.232 52.2464 83.5551 52.3541 83.8782 52.3541C84.0936 52.3541 84.309 52.3541 84.4167 52.2464C84.5244 52.1387 84.6321 52.031 84.6321 51.9233C84.6321 51.8157 84.6321 51.708 84.5244 51.6003C84.4167 51.4926 84.309 51.3849 84.2013 51.3849C84.0936 51.2772 83.8782 51.2772 83.6628 51.1695H83.5551C83.5551 51.1695 83.5551 51.1695 83.4474 51.1695C83.232 51.0618 83.0166 50.9541 82.8013 50.8464C82.5859 50.7387 82.4782 50.631 82.3705 50.4156C82.2628 50.2002 82.1551 49.9849 82.1551 49.7695C82.1551 49.4464 82.2628 49.0156 82.5859 48.8002C82.909 48.5848 83.3397 48.3694 83.7705 48.4771C83.8782 48.4771 83.9859 48.4771 84.2013 48.4771C84.309 48.4771 84.4167 48.4771 84.5244 48.4771C84.6321 48.4771 84.8474 48.4771 84.9551 48.5848C85.1705 48.5848 85.2782 48.5848 85.4936 48.5848L85.709 50.0925H85.2782C85.1705 49.7695 84.9551 49.4464 84.7398 49.1233C84.5244 48.9079 84.309 48.8002 84.0936 48.8002C83.8782 48.8002 83.7705 48.8002 83.5551 48.9079C83.4474 49.0156 83.3397 49.1233 83.3397 49.3387C83.3397 49.4464 83.3397 49.5541 83.4474 49.6618C83.5551 49.7695 83.6628 49.8772 83.7705 49.8772C83.8782 49.9848 84.0936 49.9849 84.4167 50.0925C84.4167 50.0925 84.4167 50.0925 84.5244 50.0925C84.5244 50.0925 84.5244 50.0925 84.6321 50.0925C84.8474 50.2002 85.1705 50.3079 85.3859 50.4156C85.6013 50.5233 85.709 50.631 85.9244 50.8464C86.0321 51.0618 86.1398 51.2772 86.1398 51.4926C86.1398 51.708 86.0321 52.031 85.9244 52.2464C85.709 52.4618 85.4936 52.5695 85.2782 52.6772C84.9551 52.7849 84.6321 52.8926 84.2013 52.8926C83.9859 52.8926 83.7705 52.8926 83.6628 52.8926Z" fill="#312F3B"/>
<path d="M87.2166 52.5692C87.0012 52.3538 86.7858 52.0307 86.7858 51.6V48.9076H86.032V48.4768C86.3551 48.4768 86.6781 48.3691 87.0012 48.1537C87.2166 48.046 87.432 47.8307 87.5397 47.5076C87.6474 47.1845 87.7551 46.8614 87.8628 46.5383H88.2936V48.4768H89.5859V48.9076H88.2936V51.6C88.2936 51.8153 88.2936 51.923 88.4013 52.1384C88.5089 52.2461 88.6166 52.3538 88.7243 52.3538C88.832 52.3538 88.9397 52.2461 89.0474 52.2461C89.1551 52.1384 89.2628 51.923 89.2628 51.7077C89.3705 51.3846 89.3705 51.1692 89.3705 50.8461L89.8013 50.9538C89.8013 51.3846 89.6936 51.7077 89.5859 52.1384C89.4782 52.3538 89.3705 52.6769 89.0474 52.7846C88.832 52.8923 88.5089 53 88.1859 53C87.9705 52.8923 87.5397 52.7846 87.2166 52.5692Z" fill="#312F3B"/>
<path d="M11.2923 52.4616C10.8616 52.1385 10.5385 51.8154 10.3231 51.277C10.1077 50.7385 10 50.0923 10 49.5539C10 48.9077 10.1077 48.3692 10.4308 47.8307C10.6462 47.4 11.0769 46.9692 11.5077 46.6461C12.0462 46.4307 12.5847 46.2153 13.1231 46.2153C13.2308 46.2153 13.4462 46.2153 13.5539 46.2153C13.6616 46.2153 13.7693 46.2153 13.9847 46.323C14.2001 46.323 14.4155 46.4307 14.5232 46.4307C14.6309 46.4307 14.8462 46.4307 15.0616 46.4307H15.277L15.6001 48.6923H15.3847C15.277 48.2615 15.1693 47.8307 14.9539 47.5077C14.7385 47.1846 14.5232 46.8615 14.2001 46.6461C13.877 46.4307 13.5539 46.323 13.2308 46.323C12.8 46.323 12.3693 46.4307 12.1539 46.7538C11.8308 47.0769 11.5077 47.4 11.4 47.8307C11.1846 48.3692 11.0769 48.9077 11.0769 49.4462C11.0769 49.9846 11.1846 50.5231 11.2923 51.0616C11.4 51.4923 11.6154 51.9231 12.0462 52.1385C12.3693 52.4616 12.6924 52.5693 13.1231 52.5693C13.3385 52.5693 13.6616 52.4616 13.877 52.4616C14.0924 52.3539 14.3078 52.2462 14.5232 52.0308C14.7385 51.8154 14.8462 51.6 14.8462 51.3847V50.3077L14.6309 50.0923H12.2616V49.8769H16.354V50.0923H15.8155L15.6001 50.3077V52.1385C15.3847 52.1385 15.1693 52.1385 15.0616 52.2462C14.9539 52.2462 14.7385 52.3539 14.6309 52.4616C14.3078 52.5693 14.0924 52.677 13.7693 52.7847C13.4462 52.8924 13.2308 52.8924 12.9077 52.8924C12.2616 52.8924 11.7231 52.7847 11.2923 52.4616Z" fill="#C3986B"/>
<path d="M16.5693 52.5696H17.1078L17.3232 52.3542V46.6464H16.5693V46.431C16.7847 46.431 17.1078 46.431 17.3232 46.3233C17.5386 46.2156 17.754 46.2156 18.0771 46.1079V52.3542L18.2924 52.5696H18.7232V52.785H16.5693V52.5696Z" fill="#C3986B"/>
<path d="M20.231 52.5695C19.9079 52.3541 19.5848 52.1387 19.4771 51.708C19.2617 51.3849 19.1541 50.9541 19.1541 50.5233C19.1541 50.0925 19.2617 49.6618 19.4771 49.3387C19.6925 49.0156 19.9079 48.6925 20.231 48.4771C20.5541 48.2617 20.9849 48.1541 21.3079 48.1541C21.7387 48.1541 22.0618 48.2617 22.4926 48.4771C22.8157 48.6925 23.1387 48.9079 23.2464 49.3387C23.4618 49.6618 23.5695 50.0925 23.5695 50.5233C23.5695 50.9541 23.4618 51.3849 23.2464 51.708C23.031 52.031 22.8157 52.3541 22.4926 52.5695C22.1695 52.7849 21.7387 52.8926 21.4156 52.8926C20.8772 52.8926 20.5541 52.7849 20.231 52.5695ZM22.0618 52.4618C22.2772 52.2464 22.4926 52.031 22.4926 51.708C22.708 50.9541 22.708 50.2002 22.4926 49.4464C22.3849 49.1233 22.2772 48.9079 22.0618 48.6925C21.631 48.3694 20.9849 48.3694 20.6618 48.6925C20.4464 48.9079 20.231 49.1233 20.231 49.4464C20.0156 50.2002 20.0156 50.9541 20.231 51.708C20.3387 52.031 20.4464 52.2464 20.6618 52.4618C20.9849 52.7849 21.631 52.7849 22.0618 52.4618Z" fill="#C3986B"/>
<path d="M25.7234 52.6773C25.508 52.5696 25.2926 52.3542 25.1849 52.1388C25.0772 52.2465 24.9695 52.2465 24.8619 52.3542C24.7542 52.4619 24.6465 52.5696 24.5388 52.6773H24.4311V46.6464H23.7849V46.431C24.0003 46.431 24.3234 46.431 24.5388 46.3233C24.7542 46.2156 24.9695 46.2156 25.2926 46.1079V48.8003H25.4003C25.508 48.5849 25.7234 48.4772 26.0465 48.3695C26.2619 48.2618 26.585 48.1541 26.8003 48.1541C27.1234 48.1541 27.5542 48.2618 27.7696 48.4772C28.0927 48.6926 28.3081 48.908 28.4158 49.3387C28.6312 49.6618 28.6312 50.0926 28.6312 50.5234C28.6312 50.9542 28.5235 51.3849 28.3081 51.708C28.0927 52.0311 27.8773 52.3542 27.5542 52.5696C27.2311 52.785 26.908 52.8926 26.4773 52.8926C26.2619 52.8926 26.0465 52.8926 25.7234 52.6773ZM27.2311 52.3542C27.4465 52.1388 27.5542 51.9234 27.6619 51.6003C27.7696 51.2772 27.8773 50.9542 27.8773 50.5234C27.8773 50.2003 27.8773 49.7695 27.7696 49.4464C27.6619 49.1234 27.5542 48.908 27.3388 48.6926C27.1234 48.4772 26.908 48.4772 26.6927 48.4772C26.4773 48.4772 26.2619 48.5849 26.0465 48.6926C25.8311 48.8003 25.7234 48.908 25.6157 49.1233C25.508 49.3387 25.4003 49.5541 25.4003 49.7695V51.1695C25.4003 51.4926 25.508 51.9234 25.7234 52.1388C25.9388 52.3542 26.2619 52.4619 26.585 52.4619C26.6927 52.6773 27.0157 52.5696 27.2311 52.3542Z" fill="#C3986B"/>
<path d="M29.8158 52.5697C29.6004 52.3543 29.4927 52.139 29.4927 51.8159C29.4927 51.6005 29.4927 51.4928 29.7081 51.2774C29.8158 51.062 30.0311 50.9543 30.1388 50.8466C30.3542 50.7389 30.6773 50.6312 31.0004 50.5235L32.2927 50.0928V49.5543C32.2927 49.2312 32.185 48.9081 32.0773 48.6927C31.8619 48.4774 31.6466 48.3697 31.4312 48.3697C31.2158 48.3697 31.0004 48.4774 30.785 48.585C30.6773 48.8004 30.5696 49.0158 30.5696 49.3389V49.8774L29.8158 50.2005V49.5543C29.8158 49.2312 29.9235 48.8004 30.2465 48.585C30.5696 48.3697 31.0004 48.262 31.4312 48.262C31.8619 48.262 32.2927 48.3697 32.6158 48.585C32.9389 48.8004 33.0466 49.2312 33.0466 49.5543V52.462H33.6928V52.7851C33.4774 52.7851 33.262 52.7851 32.9389 52.7851C32.7235 52.7851 32.5081 52.8928 32.2927 52.8928V51.9236H32.185C32.0773 52.139 31.9696 52.2467 31.8619 52.462C31.7543 52.5697 31.5389 52.6774 31.4312 52.7851C31.2158 52.8928 31.0004 52.8928 30.785 52.8928C30.3542 52.8928 30.0311 52.7851 29.8158 52.5697ZM31.5389 52.462C31.7543 52.3543 31.8619 52.139 31.9696 51.8159C32.0773 51.6005 32.185 51.2774 32.185 51.062V50.3082C31.6466 50.4158 31.2158 50.7389 30.785 51.062C30.4619 51.2774 30.3542 51.6005 30.3542 51.9236C30.3542 52.139 30.4619 52.3543 30.5696 52.462C30.6773 52.5697 30.8927 52.6774 31.0004 52.6774C31.1081 52.7851 31.3235 52.6774 31.5389 52.462Z" fill="#C3986B"/>
<path d="M34.0159 52.5696H34.5543L34.7697 52.3542V46.6464H34.1236V46.431C34.339 46.431 34.662 46.431 34.8774 46.3233C35.0928 46.2156 35.3082 46.2156 35.6313 46.1079V52.3542L35.8467 52.5696H36.3851V52.785H34.2313L34.0159 52.5696Z" fill="#C3986B"/>
<rect x="0.5" y="0.5" width="99" height="99" rx="5.5" stroke="#F2F8FC"/>
</svg>
