<svg width="287" height="56" fill="none" xmlns="http://www.w3.org/2000/svg"><g clip-path="url(#clip0)" fill="#FFFDF9"><path d="M28 0a28 28 0 00-10.121 54.115h.009c.106-2.552.67-5.484 2.57-6.584-.15-.124-.3-.251-.44-.384a10.981 10.981 0 01-2.629-3.779c-.1-.232-.187-.469-.276-.7-.089-.231-.165-.491-.22-.677-.017-.058-.037-.115-.055-.172-.049.25-.094.5-.13.758a17.069 17.069 0 00-.152 2.827c.012.321.045.858.061 1.136.033.593-.621.887-.987.15-.09-.183-.173-.331-.25-.5a7.154 7.154 0 01-.209-.5 10.07 10.07 0 01-.343-1.019 11.879 11.879 0 01-.392-2.134c-.019-.206-.025-.415-.032-.623A10.45 10.45 0 018.766 39.4a10.459 10.459 0 01-3.816-8.1c0-4.036 2.841-6.181 5.91-6.708-.018-.133-.038-.266-.053-.4-.054-.463-.087-.921-.12-1.379l-.026-.726c0-.242.01-.486.016-.728.097-1.966.73-3.868 1.831-5.5a13.72 13.72 0 014.135-3.91c.446-.28.9-.537 1.367-.776.8-.435 1.636-.798 2.5-1.086a4.532 4.532 0 01-.052-.268 6.53 6.53 0 01-.1-1.5c.026-.495.103-.986.232-1.464a7.133 7.133 0 011.28-2.522 6.249 6.249 0 01.699-.768c.157-.163.329-.312.512-.445.624-.448 1.287-.019.741.987l-.05.092-.124.228c-.042.082-.086.165-.127.249a7.65 7.65 0 00-.577 1.555 5.63 5.63 0 00-.144 2.043c.041.364.125.722.249 1.067l.019-.071a6.99 6.99 0 01.287-.748c.217-.494.502-.956.845-1.372.335-.409.72-.773 1.147-1.085a6.685 6.685 0 011.327-.739 7.315 7.315 0 012.111-.52 4.627 4.627 0 011.094.022c.633.146.629.977-.145 1.19l-.091.033-.257.091-.274.106c-.181.072-.36.155-.534.238-.341.167-.67.36-.98.578a4.751 4.751 0 00-1.411 1.51c-.029.05-.055.1-.081.153l.01.05c.337-.042.675-.079 1.015-.106a20.129 20.129 0 015.536.263c.927.181 1.832.461 2.7.836.891.382 1.72.898 2.455 1.53a7.826 7.826 0 011.817 2.3c.033.063.123.33.238.685.18.01.36.033.537.065 2 .386 3.389 2.053 4.016 4.332l.094-.035h.022c.174-.016.35-.024.524-.024a5.473 5.473 0 011.529.207 6.109 6.109 0 014.046 4.346 10.69 10.69 0 01-.638 7.3c-.236.546-.954 1.725-.954 1.725a12.266 12.266 0 01-2.365 10.391 18.334 18.334 0 01-4.655 4.272c-.407.245-.82.479-1.236.7l.2.017c1.745.25 3.39.964 4.764 2.068v.006A28 28 0 0028 0z"/><path d="M10.835 30.284a6.33 6.33 0 011.6.1c.43.079.853.198 1.261.357.42.164.822.37 1.2.616.384.259.743.554 1.071.881.508.528.965 1.103 1.365 1.718.46-.499.992-.928 1.576-1.274-.544-1.22-2.11-5.313-6.421-5.421-1.028-.026-4.732.333-4.732 4.041 0 5.437 5.234 7.831 6.878 7.831.072-.343.157-.685.261-1.023.23-.718.532-1.412.9-2.07a7.865 7.865 0 00-3.82-4.177 7.937 7.937 0 00-.479-.215c-.081-.034-.163-.065-.244-.1l-.228-.083-.092-.033c-1.009-.363-.811-1.074-.096-1.148zM46.273 30.749a11.864 11.864 0 00-3.854-3.479c.159-.541.275-1.094.349-1.653.492-3.776-.864-7.078-3.344-7.389-1.784-.224-3.394 1.177-4.343 3.383a7.05 7.05 0 10-10.42 9.359 9.273 9.273 0 00-2.375 6.517c.284 6.039 6.072 9.978 13.291 9.093a13.982 13.982 0 009.133-5.5 12.836 12.836 0 002.278-4.8c.187-.864.506-3.642-.715-5.531zm-11.462-2.066a5.473 5.473 0 011.27-1.432 4.9 4.9 0 011.794-1.006c.203-.052.41-.084.619-.093h.089a2.706 2.706 0 01-.26-.744c-.183-.947.138-1.809.717-1.921.579-.112 1.2.565 1.385 1.512a2.017 2.017 0 01-.312 1.683c.066.05.13.106.189.164a2.5 2.5 0 01.631 1.021c.058.175.098.355.119.538.038.234.036.473-.006.706a.425.425 0 01-.368.343h-.038a.5.5 0 01-.439-.3l-.044-.069a4.577 4.577 0 00-.418-.6 1.543 1.543 0 00-.455-.37 1.187 1.187 0 00-.462-.127h-.109a.552.552 0 00-.063 0l-.1.015a1.82 1.82 0 00-.2.044c-.48.138-.945.32-1.39.545l-.274.14c-.474.262-.965.492-1.47.689a.384.384 0 01-.427-.122.565.565 0 01.022-.616zm-5.861-2.835a1.008 1.008 0 011.755-.447 2.609 2.609 0 01.654 2.566 1.1 1.1 0 01-.738.772.895.895 0 01-.218.027 1.2 1.2 0 01-.8-.351 2.61 2.61 0 01-.654-2.567h.001zm15.447 6.7c-.08.283-.491.285-.491.285a22.59 22.59 0 00-4.185.721c-.326.1-.662.217-1 .355l-.2.08c-.265.108-.539.219-.808.343-.747.349-1.435.657-2.1.942-.758.314-1.543.557-2.346.726a9.2 9.2 0 01-2.147.211c-.114 0-.228-.009-.341-.017a5.79 5.79 0 01-2.468-.719 4.245 4.245 0 01-1.038-.811 4.415 4.415 0 01-.416-.515c-.057-.082-.11-.175-.175-.287-.244-.419-.16-.724-.025-.8.278-.153.588.3 1.353.72.282.162.58.296.888.4.308.093.623.156.943.189a6.865 6.865 0 001.97-.126c.338-.06.672-.14 1-.238.67-.205 1.327-.457 1.962-.755l.127-.052a19.732 19.732 0 014.368-1.535 9.487 9.487 0 012.472-.164c.439.043.874.121 1.3.234 1.379.385 1.398.665 1.36.811l-.003.002z"/><path d="M48.136 24.713a7.05 7.05 0 00-.173-.736 3.43 3.43 0 00-2.169-2.469 2.707 2.707 0 00-.712-.088c-.092 0-.184 0-.276.011v.052a21.03 21.03 0 01-.1 3.492 5.142 5.142 0 011.152-.618c.167-.075.34-.134.517-.178.6-.147.97.375.256.962l-.065.054-.16.132-.172.148c-.113.1-.222.207-.328.314-.207.21-.398.436-.573.675a4.065 4.065 0 00-.3.494c.964.664 1.813 1.48 2.515 2.418a8.501 8.501 0 00.588-4.663z"/></g><path d="M69.595 18.617c2.97 0 4.9 1.523 5.793 5.236l.074.037V19.1h5.051v22.951h-5.05V31.987h-.112c-.855 3.676-2.86 5.236-5.942 5.236-4.123 0-6.388-3.454-6.388-9.21 0-5.905 2.23-9.396 6.574-9.396zm5.867 9.507v-.334c0-2.934-1.41-4.605-3.714-4.605-2.6 0-3.714 1.746-3.714 4.791 0 2.934 1.152 4.679 3.714 4.679 2.303 0 3.714-1.708 3.714-4.531zm7.426 8.576V19.1h5.088v6.276h.074c.855-5.348 2.3-6.276 4.754-6.276h.854v5.793h-1.93c-2.86 0-3.752.78-3.752 3.417v8.39h-5.088zm30.266-8.8c0-5.867 3.565-9.284 9.136-9.284 5.533 0 9.1 3.417 9.1 9.284 0 5.794-3.453 9.322-9.1 9.322-5.682.001-9.136-3.522-9.136-9.322zm5.088-.037c0 2.86 1.411 4.716 4.011 4.716 2.637 0 4.085-1.856 4.085-4.716 0-2.822-1.486-4.642-4.048-4.642-2.6.001-4.048 1.821-4.048 4.643v-.001zm26.626 4.085h-.111c-.854 3.714-2.86 5.274-5.868 5.274-4.27 0-6.462-3.491-6.462-9.21 0-5.942 2.3-9.433 6.537-9.4 3.045-.037 4.976 1.523 5.83 5.273h.074v-9.947h5.051V36.7h-5.051v-4.752zm0-3.825v-.333c0-2.859-1.411-4.642-3.713-4.642-2.563 0-3.714 1.783-3.714 4.865 0 2.9 1.114 4.642 3.714 4.642 2.302 0 3.713-1.634 3.713-4.531v-.001zm6.758.149c0-6.09 3.38-9.656 9.1-9.656 5.422 0 8.059 3.454 8.059 8.245 0 .78 0 1.373-.075 2.339h-12.034c.334 2.526 1.671 3.64 4.048 3.64a3.183 3.183 0 003.528-2.526l4.382 1.226c-.854 3.194-3.157 5.645-7.985 5.645-5.309.001-9.023-3.045-9.023-8.912v-.001zm5.088-1.931h7.428c-.149-2.34-1.3-3.528-3.565-3.528-2.229.001-3.529 1.04-3.863 3.529v-.001zM173.685 36.7h-1.968V19.5h1.968v4.568h.074a5.99 5.99 0 016.239-4.939c4.234 0 5.942 2.377 6.351 5.348h.074c.52-3.491 2.6-5.348 6.2-5.348 5.088 0 6.61 3.268 6.61 6.908V36.7h-1.968V26.416c0-2.711-1.151-5.459-5.014-5.459-3.565 0-5.793 2-5.793 5.459V36.7h-1.968V26.416c0-2.711-1.151-5.459-4.976-5.459-3.6 0-5.831 2-5.831 5.459l.002 10.284zm27.852-8.69c0-5.571 3.565-8.876 8.579-8.876 5.014 0 8.578 3.305 8.578 8.876s-3.194 9.1-8.578 9.1c-5.384 0-8.579-3.527-8.579-9.097v-.003zm1.968-.037c0 4.345 2.34 7.279 6.574 7.279s6.647-2.934 6.647-7.279c0-4.308-2.526-7.019-6.61-7.019-4.084 0-6.611 2.714-6.611 7.022v-.003zm19.5 8.727h-1.968V19.5h1.968v4.568h.074a5.99 5.99 0 016.239-4.939c4.977 0 6.462 3.268 6.462 6.908V36.7h-1.968V26.416c0-2.711-1.151-5.459-4.976-5.459-3.6 0-5.831 2-5.831 5.459V36.7zm17.9-9.433h.112l9.136-7.762h2.636v.075l-10.138 8.5 10.918 8.541v.079h-2.674l-9.841-7.8h-.149v7.8h-1.968V13.938h1.968v13.329zm12.459.817c0-5.608 3.64-8.95 8.579-8.95 5.014 0 7.873 3.194 7.873 7.947.007.534-.018 1.069-.074 1.6h-14.414c.186 4.123 2.674 6.611 6.684 6.611 3.677 0 5.2-1.968 5.9-4.382l1.783.556c-.892 3.566-3.491 5.608-7.651 5.608-5.379 0-8.685-3.416-8.685-8.987l.005-.003zm2.043-1.114h12.552c-.222-3.788-2.116-6.053-6.09-6.053-3.645.003-6.093 2.12-6.467 6.056l.005-.003zm14.651 15.189l.334-1.894a10.96 10.96 0 002.154.26c2.043 0 3.454-.52 5.013-4.011l-7.835-17.009h2.228l2.637 6.017c1 2.339 2.785 6.165 4.011 8.95 1.188-2.823 2.748-6.574 3.713-8.913l2.525-6.054h2.117l-7.613 17.417c-1.708 3.9-3.751 5.46-6.8 5.46a13.988 13.988 0 01-2.489-.22l.005-.003zm-163.26-11.92a3.219 3.219 0 01-3.263 2.342c-2.376 0-3.936-1.56-3.936-4.716 0-3.231 1.634-4.643 3.9-4.643a3.306 3.306 0 013.335 2.332l4.846-1.363c-1.018-3.563-3.384-5.574-8.144-5.574-5.533 0-9.135 3.454-9.135 9.4 0 6.09 3.677 9.21 9.247 9.21 4.493 0 7.012-2.135 8.028-5.613l-4.878-1.375z" fill="#FFFDF9"/><defs><clipPath id="clip0"><path fill="#fff" d="M0 0h56v56H0z"/></clipPath></defs></svg>